<?xml version="1.0" encoding="UTF-8" standalone="no"?>
<!DOCTYPE svg PUBLIC "-//W3C//DTD SVG 1.1//EN"
 "http://www.w3.org/Graphics/SVG/1.1/DTD/svg11.dtd">
<!-- Generated by graphviz version 2.36.0 (20140111.2315)
 -->
<!-- Title: controllers_diagram Pages: 1 -->
<svg width="382pt" height="222pt"
 viewBox="0.00 0.00 382.00 222.00" xmlns="http://www.w3.org/2000/svg" xmlns:xlink="http://www.w3.org/1999/xlink">
<g id="graph0" class="graph" transform="scale(1 1) rotate(0) translate(4 218)">
<title>controllers_diagram</title>
<polygon fill="none" stroke="none" points="-4,4 -4,-218 378,-218 378,4 -4,4"/>
<!-- _diagram_info -->
<g id="node1" class="node"><title>_diagram_info</title>
<text text-anchor="start" x="8" y="-63.6" font-family="Times,serif" font-size="13.00">Controllers diagram</text>
<text text-anchor="start" x="8" y="-49.6" font-family="Times,serif" font-size="13.00">Date: Feb 26 2017 &#45; 20:16</text>
<text text-anchor="start" x="8" y="-35.6" font-family="Times,serif" font-size="13.00">Migration version: 20170226200611</text>
<text text-anchor="start" x="8" y="-21.6" font-family="Times,serif" font-size="13.00">Generated by RailRoady 1.5.2</text>
<text text-anchor="start" x="8" y="-7.6" font-family="Times,serif" font-size="13.00">http://railroady.prestonlee.com</text>
</g>
<!-- ApplicationController -->
<g id="node2" class="node"><title>ApplicationController</title>
<path fill="none" stroke="black" d="M192,-105.5C192,-105.5 362,-105.5 362,-105.5 368,-105.5 374,-111.5 374,-117.5 374,-117.5 374,-201.5 374,-201.5 374,-207.5 368,-213.5 362,-213.5 362,-213.5 192,-213.5 192,-213.5 186,-213.5 180,-207.5 180,-201.5 180,-201.5 180,-117.5 180,-117.5 180,-111.5 186,-105.5 192,-105.5"/>
<text text-anchor="middle" x="277" y="-198.3" font-family="Times,serif" font-size="14.00">ApplicationController</text>
<polyline fill="none" stroke="black" points="180,-190.5 374,-190.5 "/>
<polyline fill="none" stroke="black" points="180,-166.5 374,-166.5 "/>
<text text-anchor="start" x="188" y="-151.3" font-family="Times,serif" font-size="14.00">configure_permitted_parameters</text>
<polyline fill="none" stroke="black" points="180,-143.5 374,-143.5 "/>
<text text-anchor="start" x="188" y="-128.3" font-family="Times,serif" font-size="14.00">_layout</text>
<text text-anchor="start" x="188" y="-113.3" font-family="Times,serif" font-size="14.00">set_raven_context</text>
</g>
<!-- HomeController -->
<g id="node3" class="node"><title>HomeController</title>
<path fill="none" stroke="black" d="M57,-120.5C57,-120.5 139,-120.5 139,-120.5 145,-120.5 151,-126.5 151,-132.5 151,-132.5 151,-201.5 151,-201.5 151,-207.5 145,-213.5 139,-213.5 139,-213.5 57,-213.5 57,-213.5 51,-213.5 45,-207.5 45,-201.5 45,-201.5 45,-132.5 45,-132.5 45,-126.5 51,-120.5 57,-120.5"/>
<text text-anchor="middle" x="98" y="-198.3" font-family="Times,serif" font-size="14.00">HomeController</text>
<polyline fill="none" stroke="black" points="45,-190.5 151,-190.5 "/>
<text text-anchor="start" x="53" y="-175.3" font-family="Times,serif" font-size="14.00">index</text>
<polyline fill="none" stroke="black" points="45,-167.5 151,-167.5 "/>
<polyline fill="none" stroke="black" points="45,-143.5 151,-143.5 "/>
<text text-anchor="start" x="53" y="-128.3" font-family="Times,serif" font-size="14.00">_layout</text>
</g>
</g>
</svg>
