<?xml version="1.0" encoding="UTF-8" standalone="no"?>
<!DOCTYPE svg PUBLIC "-//W3C//DTD SVG 1.1//EN"
 "http://www.w3.org/Graphics/SVG/1.1/DTD/svg11.dtd">
<!-- Generated by graphviz version 2.36.0 (20140111.2315)
 -->
<!-- Title: models_diagram Pages: 1 -->
<svg width="1865pt" height="472pt"
 viewBox="0.00 0.00 1865.00 472.00" xmlns="http://www.w3.org/2000/svg" xmlns:xlink="http://www.w3.org/1999/xlink">
<g id="graph0" class="graph" transform="scale(1 1) rotate(0) translate(4 468)">
<title>models_diagram</title>
<polygon fill="none" stroke="none" points="-4,4 -4,-468 1861,-468 1861,4 -4,4"/>
<!-- _diagram_info -->
<g id="node1" class="node"><title>_diagram_info</title>
<text text-anchor="start" x="7" y="-374.6" font-family="Times,serif" font-size="13.00">Models diagram</text>
<text text-anchor="start" x="7" y="-360.6" font-family="Times,serif" font-size="13.00">Date: Feb 26 2017 &#45; 20:16</text>
<text text-anchor="start" x="7" y="-346.6" font-family="Times,serif" font-size="13.00">Migration version: 20170226200611</text>
<text text-anchor="start" x="7" y="-332.6" font-family="Times,serif" font-size="13.00">Generated by RailRoady 1.5.2</text>
<text text-anchor="start" x="7" y="-318.6" font-family="Times,serif" font-size="13.00">http://railroady.prestonlee.com</text>
</g>
<!-- Product -->
<g id="node2" class="node"><title>Product</title>
<path fill="none" stroke="black" d="M223,-1C223,-1 483,-1 483,-1 489,-1 495,-7 495,-13 495,-13 495,-185 495,-185 495,-191 489,-197 483,-197 483,-197 223,-197 223,-197 217,-197 211,-191 211,-185 211,-185 211,-13 211,-13 211,-7 217,-1 223,-1"/>
<text text-anchor="middle" x="353" y="-181.8" font-family="Times,serif" font-size="14.00">Product</text>
<polyline fill="none" stroke="black" points="211,-174 495,-174 "/>
<text text-anchor="start" x="219" y="-158.8" font-family="Times,serif" font-size="14.00">id :integer</text>
<text text-anchor="start" x="219" y="-143.8" font-family="Times,serif" font-size="14.00">name :character varying</text>
<text text-anchor="start" x="219" y="-128.8" font-family="Times,serif" font-size="14.00">price :numeric(8,2)</text>
<text text-anchor="start" x="219" y="-113.8" font-family="Times,serif" font-size="14.00">description :text</text>
<text text-anchor="start" x="219" y="-98.8" font-family="Times,serif" font-size="14.00">created_at :timestamp without time zone</text>
<text text-anchor="start" x="219" y="-83.8" font-family="Times,serif" font-size="14.00">updated_at :timestamp without time zone</text>
<text text-anchor="start" x="219" y="-68.8" font-family="Times,serif" font-size="14.00">category_id :integer</text>
<text text-anchor="start" x="219" y="-53.8" font-family="Times,serif" font-size="14.00">image_file_name :character varying</text>
<text text-anchor="start" x="219" y="-38.8" font-family="Times,serif" font-size="14.00">image_content_type :character varying</text>
<text text-anchor="start" x="219" y="-23.8" font-family="Times,serif" font-size="14.00">image_file_size :integer</text>
<text text-anchor="start" x="219" y="-8.8" font-family="Times,serif" font-size="14.00">image_updated_at :timestamp without time zone</text>
</g>
<!-- Ckeditor::AttachmentFile -->
<g id="node3" class="node"><title>Ckeditor::AttachmentFile</title>
<path fill="none" stroke="black" d="M597,-259.5C597,-259.5 817,-259.5 817,-259.5 823,-259.5 829,-265.5 829,-271.5 829,-271.5 829,-428.5 829,-428.5 829,-434.5 823,-440.5 817,-440.5 817,-440.5 597,-440.5 597,-440.5 591,-440.5 585,-434.5 585,-428.5 585,-428.5 585,-271.5 585,-271.5 585,-265.5 591,-259.5 597,-259.5"/>
<text text-anchor="middle" x="707" y="-425.3" font-family="Times,serif" font-size="14.00">Ckeditor::AttachmentFile</text>
<polyline fill="none" stroke="black" points="585,-417.5 829,-417.5 "/>
<text text-anchor="start" x="593" y="-402.3" font-family="Times,serif" font-size="14.00">id :integer</text>
<text text-anchor="start" x="593" y="-387.3" font-family="Times,serif" font-size="14.00">data_file_name :character varying</text>
<text text-anchor="start" x="593" y="-372.3" font-family="Times,serif" font-size="14.00">data_content_type :character varying</text>
<text text-anchor="start" x="593" y="-357.3" font-family="Times,serif" font-size="14.00">data_file_size :integer</text>
<text text-anchor="start" x="593" y="-342.3" font-family="Times,serif" font-size="14.00">data_fingerprint :character varying</text>
<text text-anchor="start" x="593" y="-327.3" font-family="Times,serif" font-size="14.00">type :character varying(30)</text>
<text text-anchor="start" x="593" y="-312.3" font-family="Times,serif" font-size="14.00">width :integer</text>
<text text-anchor="start" x="593" y="-297.3" font-family="Times,serif" font-size="14.00">height :integer</text>
<text text-anchor="start" x="593" y="-282.3" font-family="Times,serif" font-size="14.00">created_at :timestamp without time zone</text>
<text text-anchor="start" x="593" y="-267.3" font-family="Times,serif" font-size="14.00">updated_at :timestamp without time zone</text>
</g>
<!-- Ckeditor::Asset -->
<g id="node4" class="node"><title>Ckeditor::Asset</title>
<path fill="none" stroke="black" d="M859,-259.5C859,-259.5 1079,-259.5 1079,-259.5 1085,-259.5 1091,-265.5 1091,-271.5 1091,-271.5 1091,-428.5 1091,-428.5 1091,-434.5 1085,-440.5 1079,-440.5 1079,-440.5 859,-440.5 859,-440.5 853,-440.5 847,-434.5 847,-428.5 847,-428.5 847,-271.5 847,-271.5 847,-265.5 853,-259.5 859,-259.5"/>
<text text-anchor="middle" x="969" y="-425.3" font-family="Times,serif" font-size="14.00">Ckeditor::Asset</text>
<polyline fill="none" stroke="black" points="847,-417.5 1091,-417.5 "/>
<text text-anchor="start" x="855" y="-402.3" font-family="Times,serif" font-size="14.00">id :integer</text>
<text text-anchor="start" x="855" y="-387.3" font-family="Times,serif" font-size="14.00">data_file_name :character varying</text>
<text text-anchor="start" x="855" y="-372.3" font-family="Times,serif" font-size="14.00">data_content_type :character varying</text>
<text text-anchor="start" x="855" y="-357.3" font-family="Times,serif" font-size="14.00">data_file_size :integer</text>
<text text-anchor="start" x="855" y="-342.3" font-family="Times,serif" font-size="14.00">data_fingerprint :character varying</text>
<text text-anchor="start" x="855" y="-327.3" font-family="Times,serif" font-size="14.00">type :character varying(30)</text>
<text text-anchor="start" x="855" y="-312.3" font-family="Times,serif" font-size="14.00">width :integer</text>
<text text-anchor="start" x="855" y="-297.3" font-family="Times,serif" font-size="14.00">height :integer</text>
<text text-anchor="start" x="855" y="-282.3" font-family="Times,serif" font-size="14.00">created_at :timestamp without time zone</text>
<text text-anchor="start" x="855" y="-267.3" font-family="Times,serif" font-size="14.00">updated_at :timestamp without time zone</text>
</g>
<!-- Ckeditor::Picture -->
<g id="node5" class="node"><title>Ckeditor::Picture</title>
<path fill="none" stroke="black" d="M1121,-259.5C1121,-259.5 1341,-259.5 1341,-259.5 1347,-259.5 1353,-265.5 1353,-271.5 1353,-271.5 1353,-428.5 1353,-428.5 1353,-434.5 1347,-440.5 1341,-440.5 1341,-440.5 1121,-440.5 1121,-440.5 1115,-440.5 1109,-434.5 1109,-428.5 1109,-428.5 1109,-271.5 1109,-271.5 1109,-265.5 1115,-259.5 1121,-259.5"/>
<text text-anchor="middle" x="1231" y="-425.3" font-family="Times,serif" font-size="14.00">Ckeditor::Picture</text>
<polyline fill="none" stroke="black" points="1109,-417.5 1353,-417.5 "/>
<text text-anchor="start" x="1117" y="-402.3" font-family="Times,serif" font-size="14.00">id :integer</text>
<text text-anchor="start" x="1117" y="-387.3" font-family="Times,serif" font-size="14.00">data_file_name :character varying</text>
<text text-anchor="start" x="1117" y="-372.3" font-family="Times,serif" font-size="14.00">data_content_type :character varying</text>
<text text-anchor="start" x="1117" y="-357.3" font-family="Times,serif" font-size="14.00">data_file_size :integer</text>
<text text-anchor="start" x="1117" y="-342.3" font-family="Times,serif" font-size="14.00">data_fingerprint :character varying</text>
<text text-anchor="start" x="1117" y="-327.3" font-family="Times,serif" font-size="14.00">type :character varying(30)</text>
<text text-anchor="start" x="1117" y="-312.3" font-family="Times,serif" font-size="14.00">width :integer</text>
<text text-anchor="start" x="1117" y="-297.3" font-family="Times,serif" font-size="14.00">height :integer</text>
<text text-anchor="start" x="1117" y="-282.3" font-family="Times,serif" font-size="14.00">created_at :timestamp without time zone</text>
<text text-anchor="start" x="1117" y="-267.3" font-family="Times,serif" font-size="14.00">updated_at :timestamp without time zone</text>
</g>
<!-- User -->
<g id="node6" class="node"><title>User</title>
<path fill="none" stroke="black" d="M1383.5,-237C1383.5,-237 1672.5,-237 1672.5,-237 1678.5,-237 1684.5,-243 1684.5,-249 1684.5,-249 1684.5,-451 1684.5,-451 1684.5,-457 1678.5,-463 1672.5,-463 1672.5,-463 1383.5,-463 1383.5,-463 1377.5,-463 1371.5,-457 1371.5,-451 1371.5,-451 1371.5,-249 1371.5,-249 1371.5,-243 1377.5,-237 1383.5,-237"/>
<text text-anchor="middle" x="1528" y="-447.8" font-family="Times,serif" font-size="14.00">User</text>
<polyline fill="none" stroke="black" points="1371.5,-440 1684.5,-440 "/>
<text text-anchor="start" x="1379.5" y="-424.8" font-family="Times,serif" font-size="14.00">id :integer</text>
<text text-anchor="start" x="1379.5" y="-409.8" font-family="Times,serif" font-size="14.00">email :character varying</text>
<text text-anchor="start" x="1379.5" y="-394.8" font-family="Times,serif" font-size="14.00">encrypted_password :character varying</text>
<text text-anchor="start" x="1379.5" y="-379.8" font-family="Times,serif" font-size="14.00">reset_password_token :character varying</text>
<text text-anchor="start" x="1379.5" y="-364.8" font-family="Times,serif" font-size="14.00">reset_password_sent_at :timestamp without time zone</text>
<text text-anchor="start" x="1379.5" y="-349.8" font-family="Times,serif" font-size="14.00">remember_created_at :timestamp without time zone</text>
<text text-anchor="start" x="1379.5" y="-334.8" font-family="Times,serif" font-size="14.00">sign_in_count :integer</text>
<text text-anchor="start" x="1379.5" y="-319.8" font-family="Times,serif" font-size="14.00">current_sign_in_at :timestamp without time zone</text>
<text text-anchor="start" x="1379.5" y="-304.8" font-family="Times,serif" font-size="14.00">last_sign_in_at :timestamp without time zone</text>
<text text-anchor="start" x="1379.5" y="-289.8" font-family="Times,serif" font-size="14.00">current_sign_in_ip :inet</text>
<text text-anchor="start" x="1379.5" y="-274.8" font-family="Times,serif" font-size="14.00">last_sign_in_ip :inet</text>
<text text-anchor="start" x="1379.5" y="-259.8" font-family="Times,serif" font-size="14.00">created_at :timestamp without time zone</text>
<text text-anchor="start" x="1379.5" y="-244.8" font-family="Times,serif" font-size="14.00">updated_at :timestamp without time zone</text>
</g>
<!-- Category -->
<g id="node7" class="node"><title>Category</title>
<path fill="none" stroke="black" d="M243,-297C243,-297 463,-297 463,-297 469,-297 475,-303 475,-309 475,-309 475,-391 475,-391 475,-397 469,-403 463,-403 463,-403 243,-403 243,-403 237,-403 231,-397 231,-391 231,-391 231,-309 231,-309 231,-303 237,-297 243,-297"/>
<text text-anchor="middle" x="353" y="-387.8" font-family="Times,serif" font-size="14.00">Category</text>
<polyline fill="none" stroke="black" points="231,-380 475,-380 "/>
<text text-anchor="start" x="239" y="-364.8" font-family="Times,serif" font-size="14.00">id :integer</text>
<text text-anchor="start" x="239" y="-349.8" font-family="Times,serif" font-size="14.00">name :character varying</text>
<text text-anchor="start" x="239" y="-334.8" font-family="Times,serif" font-size="14.00">created_at :timestamp without time zone</text>
<text text-anchor="start" x="239" y="-319.8" font-family="Times,serif" font-size="14.00">updated_at :timestamp without time zone</text>
<text text-anchor="start" x="239" y="-304.8" font-family="Times,serif" font-size="14.00">category_id :integer</text>
</g>
<!-- Category&#45;&gt;Product -->
<g id="edge2" class="edge"><title>Category&#45;&gt;Product</title>
<path fill="none" stroke="#7b00de" d="M353,-288.479C353,-264.045 353,-235.098 353,-207.314"/>
<ellipse fill="none" stroke="#7b00de" cx="353" cy="-292.801" rx="4" ry="4"/>
<polygon fill="#7b00de" stroke="#7b00de" points="353,-207.141 357.5,-197.141 353,-202.141 353,-197.141 353,-197.141 353,-197.141 353,-202.141 348.5,-197.141 353,-207.141 353,-207.141"/>
</g>
<!-- Category&#45;&gt;Category -->
<g id="edge1" class="edge"><title>Category&#45;&gt;Category</title>
<path fill="none" stroke="#bbe61c" d="M482.715,-365.967C489.186,-361.993 493,-356.671 493,-350 493,-344.024 489.939,-339.13 484.649,-335.319"/>
<ellipse fill="none" stroke="#bbe61c" cx="479.004" cy="-367.755" rx="4.00002" ry="4.00002"/>
<polygon fill="#bbe61c" stroke="#bbe61c" points="484.272,-335.123 477.476,-326.516 479.836,-332.815 475.4,-330.508 475.4,-330.508 475.4,-330.508 479.836,-332.815 473.324,-334.501 484.272,-335.123 484.272,-335.123"/>
<text text-anchor="middle" x="530" y="-346.3" font-family="Times,serif" font-size="14.00">subcategories</text>
</g>
<!-- ApplicationRecord -->
<g id="node8" class="node"><title>ApplicationRecord</title>
<ellipse fill="none" stroke="black" cx="1780" cy="-350" rx="77.0154" ry="18"/>
<text text-anchor="middle" x="1780" y="-346.3" font-family="Times,serif" font-size="14.00">ApplicationRecord</text>
</g>
</g>
</svg>
