<?xml version="1.0" encoding="UTF-8" standalone="no"?>
<!DOCTYPE svg PUBLIC "-//W3C//DTD SVG 1.1//EN"
 "http://www.w3.org/Graphics/SVG/1.1/DTD/svg11.dtd">
<!-- Generated by graphviz version 2.36.0 (20140111.2315)
 -->
<!-- Title: models_diagram Pages: 1 -->
<svg width="1193pt" height="160pt"
 viewBox="0.00 0.00 1193.00 160.00" xmlns="http://www.w3.org/2000/svg" xmlns:xlink="http://www.w3.org/1999/xlink">
<g id="graph0" class="graph" transform="scale(1 1) rotate(0) translate(4 156)">
<title>models_diagram</title>
<polygon fill="none" stroke="none" points="-4,4 -4,-156 1189,-156 1189,4 -4,4"/>
<!-- _diagram_info -->
<g id="node1" class="node"><title>_diagram_info</title>
<text text-anchor="start" x="7" y="-137.6" font-family="Times,serif" font-size="13.00">Models diagram</text>
<text text-anchor="start" x="7" y="-123.6" font-family="Times,serif" font-size="13.00">Date: Feb 26 2017 &#45; 20:16</text>
<text text-anchor="start" x="7" y="-109.6" font-family="Times,serif" font-size="13.00">Migration version: 20170226200611</text>
<text text-anchor="start" x="7" y="-95.6" font-family="Times,serif" font-size="13.00">Generated by RailRoady 1.5.2</text>
<text text-anchor="start" x="7" y="-81.6" font-family="Times,serif" font-size="13.00">http://railroady.prestonlee.com</text>
</g>
<!-- Product -->
<g id="node2" class="node"><title>Product</title>
<ellipse fill="none" stroke="black" cx="274" cy="-18" rx="38.0212" ry="18"/>
<text text-anchor="middle" x="274" y="-14.3" font-family="Times,serif" font-size="14.00">Product</text>
</g>
<!-- Ckeditor::AttachmentFile -->
<g id="node3" class="node"><title>Ckeditor::AttachmentFile</title>
<ellipse fill="none" stroke="black" cx="528" cy="-113" rx="101.087" ry="18"/>
<text text-anchor="middle" x="528" y="-109.3" font-family="Times,serif" font-size="14.00">Ckeditor::AttachmentFile</text>
</g>
<!-- Ckeditor::Asset -->
<g id="node4" class="node"><title>Ckeditor::Asset</title>
<ellipse fill="none" stroke="black" cx="713" cy="-113" rx="65.4659" ry="18"/>
<text text-anchor="middle" x="713" y="-109.3" font-family="Times,serif" font-size="14.00">Ckeditor::Asset</text>
</g>
<!-- Ckeditor::Picture -->
<g id="node5" class="node"><title>Ckeditor::Picture</title>
<ellipse fill="none" stroke="black" cx="868" cy="-113" rx="71.2405" ry="18"/>
<text text-anchor="middle" x="868" y="-109.3" font-family="Times,serif" font-size="14.00">Ckeditor::Picture</text>
</g>
<!-- User -->
<g id="node6" class="node"><title>User</title>
<ellipse fill="none" stroke="black" cx="985" cy="-113" rx="26.949" ry="18"/>
<text text-anchor="middle" x="985" y="-109.3" font-family="Times,serif" font-size="14.00">User</text>
</g>
<!-- Category -->
<g id="node7" class="node"><title>Category</title>
<ellipse fill="none" stroke="black" cx="274" cy="-113" rx="42.3456" ry="18"/>
<text text-anchor="middle" x="274" y="-109.3" font-family="Times,serif" font-size="14.00">Category</text>
</g>
<!-- Category&#45;&gt;Product -->
<g id="edge2" class="edge"><title>Category&#45;&gt;Product</title>
<path fill="none" stroke="#7d45f9" d="M274,-86.5625C274,-74.0778 274,-59.0248 274,-46.2991"/>
<ellipse fill="none" stroke="#7d45f9" cx="274" cy="-90.9424" rx="4" ry="4"/>
<polygon fill="#7d45f9" stroke="#7d45f9" points="274,-46.2644 278.5,-36.2644 274,-41.2644 274,-36.2644 274,-36.2644 274,-36.2644 274,-41.2644 269.5,-36.2645 274,-46.2644 274,-46.2644"/>
</g>
<!-- Category&#45;&gt;Category -->
<g id="edge1" class="edge"><title>Category&#45;&gt;Category</title>
<path fill="none" stroke="#8ceb79" d="M316.395,-123.678C326.512,-122.833 334,-119.274 334,-113 334,-107.157 327.504,-103.668 318.439,-102.534"/>
<ellipse fill="none" stroke="#8ceb79" cx="312.226" cy="-123.737" rx="4" ry="4"/>
<polygon fill="#8ceb79" stroke="#8ceb79" points="318.222,-102.528 308.372,-97.7076 313.224,-102.366 308.227,-102.205 308.227,-102.205 308.227,-102.205 313.224,-102.366 308.082,-106.703 318.222,-102.528 318.222,-102.528"/>
<text text-anchor="middle" x="371" y="-109.3" font-family="Times,serif" font-size="14.00">subcategories</text>
</g>
<!-- ApplicationRecord -->
<g id="node8" class="node"><title>ApplicationRecord</title>
<ellipse fill="none" stroke="black" cx="1108" cy="-113" rx="77.0154" ry="18"/>
<text text-anchor="middle" x="1108" y="-109.3" font-family="Times,serif" font-size="14.00">ApplicationRecord</text>
</g>
</g>
</svg>
